# xmcd
#
# Track frame offsets: 
#        150
#        12900
#        24838
#        39144
#        50966
#        62294
#        101571
#        113806
#        125023
#        137974
#        150388
#        161619
#        173453
#        184677
#        194166
#        204159
#        215717
#        225902
#        236834
#        249227
#        259655
#
# Disc length: 3614 seconds
#
# Revision: 2
# Processed by: cddbd v1.5.2PL0 Copyright (c) Steve Scherf et al.
# Submitted via: ExactAudioCopyFreeDBPlugin 1.0
#
DISCID=140e1c15
DTITLE=Ike Turner - Rhythm Rockin' Blues
DYEAR=1995
DGENRE=Rhythm and Blues
TTITLE0=Jackie Brenston and His Delta Cats - Rocket 88
TTITLE1=Lover Boy - The Way You Used to Treat Me
TTITLE2=Dennis Binder - I Miss You So
TTITLE3=Dennis Binder - Nobody Wants Me
TTITLE4=Ike Turner and His Orchestra - Loosely (aka "The Wild One")
TTITLE5=All the Blues, All the Time (Medley)
TTITLE6=J. W. Walker - Sittning and Wondering
TTITLE7=Dennis Binder - Early Times
TTITLE8=Johnny Wright With Ike Turner's Orchestra - The World is Yours
TTITLE9=Johnny Wright With Ike Turner's Orchestra - Suffocate
TTITLE10=Little Johnny Burton - Talkin' About Me
TTITLE11=Little Johnny Burton - Walk My Way Home
TTITLE12=Lonnie "The Cat" - I Ain't Drunk
TTITLE13=Lonnie "The Cat" - The Road I Travel
TTITLE14=Billy Gale - Night Howler
TTITLE15=Billy Gale - My Heart in Your Hands
TTITLE16=Billy Gayles - A Woman Just Won't Do
TTITLE17=Billy Gayles - I'm Tired of Being Dogged Around
TTITLE18=Dennis Binder - You Got Me Way Down Here
TTITLE19=The Lover Boy - Love is Scarce
TTITLE20=Lover Boy - Nobody Seems to Want Me
EXTD=
EXTT0=
EXTT1=
EXTT2=
EXTT3=
EXTT4=
EXTT5=Feeling Good, Love My Baby, Please Love Me, Boogie Chillen', Dus
EXTT5=t My Broom, Rockin' and Rolling, Hoochie Coochie Man, Woke Up This
EXTT5=Morning\n
EXTT6=
EXTT7=
EXTT8=
EXTT9=
EXTT10=
EXTT11=
EXTT12=
EXTT13=
EXTT14=
EXTT15=
EXTT16=
EXTT17=
EXTT18=
EXTT19=
EXTT20=
PLAYORDER=
